HIERARCHY
ROOT hips
{
  OFFSET 0 9.714602 2.157075e-15
  CHANNELS 6 Xposition Yposition Zposition Yrotation Xrotation Zrotation
  JOINT leftUpperLeg
  {
    OFFSET 0.603868179 -0.8547634000000004 0
    CHANNELS 3 Yrotation Xrotation Zrotation
    JOINT leftLowerLeg
    {
      OFFSET 0 -3.63383757784745 0
      CHANNELS 3 Yrotation Xrotation Zrotation
      JOINT leftFoot
      {
        OFFSET -0.12525308900000004 -4.195072000000001 -0.20169123999999997
        CHANNELS 3 Yrotation Xrotation Zrotation
        JOINT leftToes
        {
          OFFSET -0.03434009849999996 -0.8300733570000007 0.7748183
          CHANNELS 3 Yrotation Xrotation Zrotation
          End Site
          {
            OFFSET -0.03434009849999996 -0.20150344299999845 0.7748183
          }
        }
      }
    }
  }
  JOINT rightUpperLeg
  {
    OFFSET -0.603888966 -0.8547634000000004 0
    CHANNELS 3 Yrotation Xrotation Zrotation
    JOINT rightLowerLeg
    {
      OFFSET 0 -3.633837684417624 0
      CHANNELS 3 Yrotation Xrotation Zrotation
      JOINT rightFoot
      {
        OFFSET 0.12526601599999998 -4.195072000000001 -0.20168892999999996
        CHANNELS 3 Yrotation Xrotation Zrotation
        JOINT rightToes
        {
          OFFSET 0.03434613350000004 -0.8300733570000007 0.7748197
          CHANNELS 3 Yrotation Xrotation Zrotation
          End Site
          {
            OFFSET 0.03434613350000004 -0.20150344299999845 0.7748197
          }
        }
      }
    }
  }
  JOINT spine
  {
    OFFSET 0 0.12716710600000014 0
    CHANNELS 3 Yrotation Xrotation Zrotation
    JOINT chest
    {
      OFFSET 0 0.5628217276339793 0
      CHANNELS 3 Yrotation Xrotation Zrotation
      JOINT upperChest
      {
        OFFSET 0 0.8959260118715402 0
        CHANNELS 3 Yrotation Xrotation Zrotation
        JOINT leftShoulder
        {
          OFFSET 0.164333079 1.3716208900000004 0
          CHANNELS 3 Yrotation Xrotation Zrotation
          JOINT leftUpperArm
          {
            OFFSET 0.5440966369472551 0 0
            CHANNELS 3 Yrotation Xrotation Zrotation
            JOINT leftLowerArm
            {
              OFFSET 2.0903029426819146 0 0
              CHANNELS 3 Yrotation Xrotation Zrotation
              JOINT leftHand
              {
                OFFSET 2.1773154932749046 0 0
                CHANNELS 3 Yrotation Xrotation Zrotation
                JOINT leftIndexProximal
                {
                  OFFSET 0.5242087100000004 0.04142403544999951 0.1569554180744
                  CHANNELS 3 Yrotation Xrotation Zrotation
                  JOINT leftIndexIntermediate
                  {
                    OFFSET 0.2688390000000007 -0.01759290700000138 -0.007211491469999989
                    CHANNELS 3 Yrotation Xrotation Zrotation
                    JOINT leftIndexDistal
                    {
                      OFFSET 0.1728022099999993 -0.011349916499998614 -0.002532955260000011
                      CHANNELS 3 Yrotation Xrotation Zrotation
                      End Site
                      {
                        OFFSET 0.1728022099999993 -0.011349916499998614 -0.002532955260000011
                      }
                    }
                  }
                }
                JOINT leftMiddleProximal
                {
                  OFFSET 0.5304522810000001 0.04766821864999882 0.02003710807439999
                  CHANNELS 3 Yrotation Xrotation Zrotation
                  JOINT leftMiddleIntermediate
                  {
                    OFFSET 0.308005214 -0.01806497570000065 -0.000008828937999999509
                    CHANNELS 3 Yrotation Xrotation Zrotation
                    JOINT leftMiddleDistal
                    {
                      OFFSET 0.1879638430000008 -0.011110305799999498 0.00013381242800002136
                      CHANNELS 3 Yrotation Xrotation Zrotation
                      End Site
                      {
                        OFFSET 0.1879638430000008 -0.011110305799999498 0.00013381242800002136
                      }
                    }
                  }
                }
                JOINT leftLittleProximal
                {
                  OFFSET 0.4858322439999996 -0.01170992855000108 -0.22194579292560002
                  CHANNELS 3 Yrotation Xrotation Zrotation
                  JOINT leftLittleIntermediate
                  {
                    OFFSET 0.19780874300000084 -0.010591745399999297 0.01081235710000003
                    CHANNELS 3 Yrotation Xrotation Zrotation
                    JOINT leftLittleDistal
                    {
                      OFFSET 0.13411581499999992 -0.007411241529999835 0.005455538629999951
                      CHANNELS 3 Yrotation Xrotation Zrotation
                      End Site
                      {
                        OFFSET 0.13411581499999992 -0.007411241529999835 0.005455538629999951
                      }
                    }
                  }
                }
                JOINT leftRingProximal
                {
                  OFFSET 0.5272181330000003 0.024465322449997995 -0.11045969992560002
                  CHANNELS 3 Yrotation Xrotation Zrotation
                  JOINT leftRingIntermediate
                  {
                    OFFSET 0.23788988600000005 -0.012254714999999639 0.009996630000000048
                    CHANNELS 3 Yrotation Xrotation Zrotation
                    JOINT leftRingDistal
                    {
                      OFFSET 0.16061007999999988 -0.008172988999999298 0.005049183999999915
                      CHANNELS 3 Yrotation Xrotation Zrotation
                      End Site
                      {
                        OFFSET 0.16061007999999988 -0.008172988999999298 0.005049183999999915
                      }
                    }
                  }
                }
                JOINT leftThumbProximal
                {
                  OFFSET 0.10017096999999975 -0.08589744455000048 0.15498148307440002
                  CHANNELS 3 Yrotation Xrotation Zrotation
                  JOINT leftThumbIntermediate
                  {
                    OFFSET 0.28238728599999985 -0.0738751900000012 0.14039220000000008
                    CHANNELS 3 Yrotation Xrotation Zrotation
                    JOINT leftThumbDistal
                    {
                      OFFSET 0.19661068900000078 -0.08030175999999889 0.01706469799999999
                      CHANNELS 3 Yrotation Xrotation Zrotation
                      End Site
                      {
                        OFFSET 0.19661068900000078 -0.08030175999999889 0.01706469799999999
                      }
                    }
                  }
                }
              }
            }
          }
        }
        JOINT neck
        {
          OFFSET 0 1.4057550240976888 0
          CHANNELS 3 Yrotation Xrotation Zrotation
          JOINT head
          {
            OFFSET 0 0.7687676000000313 0
            CHANNELS 3 Yrotation Xrotation Zrotation
            JOINT leftEye
            {
              OFFSET 0.276441574 0.46404719999999955 0.116034755
              CHANNELS 3 Yrotation Xrotation Zrotation
              End Site
              {
                OFFSET 0.276441574 0.46404719999999955 0.116034755
              }
            }
            JOINT rightEye
            {
              OFFSET -0.27644991899999993 0.46404719999999955 0.116034495
              CHANNELS 3 Yrotation Xrotation Zrotation
              End Site
              {
                OFFSET -0.27644991899999993 0.46404719999999955 0.116034495
              }
            }
            JOINT jaw
            {
              OFFSET -2.868399210000001e-7 -0.10894656200000075 0.5470737
              CHANNELS 3 Yrotation Xrotation Zrotation
              End Site
              {
                OFFSET -2.868399210000001e-7 -0.10894656200000075 0.5470737
              }
            }
          }
        }
        JOINT rightShoulder
        {
          OFFSET -0.164300315 1.3716208900000004 0
          CHANNELS 3 Yrotation Xrotation Zrotation
          JOINT rightUpperArm
          {
            OFFSET -0.5440967087760871 0 0
            CHANNELS 3 Yrotation Xrotation Zrotation
            JOINT rightLowerArm
            {
              OFFSET -2.0903020053638963 0 0
              CHANNELS 3 Yrotation Xrotation Zrotation
              JOINT rightHand
              {
                OFFSET -2.1773139222338718 0 0
                CHANNELS 3 Yrotation Xrotation Zrotation
                JOINT rightIndexProximal
                {
                  OFFSET -0.5240443353000002 0.04012465494599882 0.15783574549999999
                  CHANNELS 3 Yrotation Xrotation Zrotation
                  JOINT rightIndexIntermediate
                  {
                    OFFSET -0.26884555800000043 -0.017589330699998573 -0.006999019529999977
                    CHANNELS 3 Yrotation Xrotation Zrotation
                    JOINT rightIndexDistal
                    {
                      OFFSET -0.17280339999999894 -0.011366605800000595 -0.0023968889999999906
                      CHANNELS 3 Yrotation Xrotation Zrotation
                      End Site
                      {
                        OFFSET -0.17280339999999894 -0.011366605800000595 -0.0023968889999999906
                      }
                    }
                  }
                }
                JOINT rightMiddleProximal
                {
                  OFFSET -0.5304410943000004 0.047378540046001394 0.02097420400000001
                  CHANNELS 3 Yrotation Xrotation Zrotation
                  JOINT rightMiddleIntermediate
                  {
                    OFFSET -0.30800104100000003 -0.018138885500000868 0.00022318214199998354
                    CHANNELS 3 Yrotation Xrotation Zrotation
                    JOINT rightMiddleDistal
                    {
                      OFFSET -0.1879608629999996 -0.011157989999999174 0.00027462840000002514
                      CHANNELS 3 Yrotation Xrotation Zrotation
                      End Site
                      {
                        OFFSET -0.1879608629999996 -0.011157989999999174 0.00027462840000002514
                      }
                    }
                  }
                }
                JOINT rightLittleProximal
                {
                  OFFSET -0.4860737942999993 -0.010194778443999297 -0.22149037550000003
                  CHANNELS 3 Yrotation Xrotation Zrotation
                  JOINT rightLittleIntermediate
                  {
                    OFFSET -0.19779741800000084 -0.010701417900000898 0.0109232217
                    CHANNELS 3 Yrotation Xrotation Zrotation
                    JOINT rightLittleDistal
                    {
                      OFFSET -0.13410925900000037 -0.007473230360000027 0.005529150370000013
                      CHANNELS 3 Yrotation Xrotation Zrotation
                      End Site
                      {
                        OFFSET -0.13410925900000037 -0.007473230360000027 0.005529150370000013
                      }
                    }
                  }
                }
                JOINT rightRingProximal
                {
                  OFFSET -0.5273464322999999 0.025143623346000066 -0.10969422750000002
                  CHANNELS 3 Yrotation Xrotation Zrotation
                  JOINT rightRingIntermediate
                  {
                    OFFSET -0.23787677299999976 -0.012384653099999365 0.01014918090000004
                    CHANNELS 3 Yrotation Xrotation Zrotation
                    JOINT rightRingDistal
                    {
                      OFFSET -0.16060352300000025 -0.008248091000000457 0.005152895999999962
                      CHANNELS 3 Yrotation Xrotation Zrotation
                      End Site
                      {
                        OFFSET -0.16060352300000025 -0.008248091000000457 0.005152895999999962
                      }
                    }
                  }
                }
                JOINT rightThumbProximal
                {
                  OFFSET -0.09997814890000067 -0.08706808505400065 0.1544524175
                  CHANNELS 3 Yrotation Xrotation Zrotation
                  JOINT rightThumbIntermediate
                  {
                    OFFSET -0.2821510999999999 -0.0748121737999985 0.14037167699999997
                    CHANNELS 3 Yrotation Xrotation Zrotation
                    JOINT rightThumbDistal
                    {
                      OFFSET -0.19664823999999914 -0.08023024000000101 0.016960725200000012
                      CHANNELS 3 Yrotation Xrotation Zrotation
                      End Site
                      {
                        OFFSET -0.19664823999999914 -0.08023024000000101 0.016960725200000012
                      }
                    }
                  }
                }
              }
            }
          }
        }
      }
    }
  }
}
MOTION
Frames: 4
Frame Time: 0.03333333333333333
0.2183432847530852 9.464550482403633 -3.619249239591458 -7.39108365954263 -7.917669274892947 2.4780048510270394 -11.081210663955773 -9.797320937514355 -6.482918775600765 0.014595393877378324 28.08918542814948 4.255969594290107 18.019044434707652 -2.7122731128235826 -2.8775501349214876 0 0 0 6.963215619598576 0.024319559615793216 4.0171822276816735 -0.0021807908622005433 16.257992095220118 -2.5121592313390635 -4.1054691423764424 -4.1608979660891094 -3.6580080781821147 0 0 0 1.8952516861601025 3.9345480761356915 0.08303922297605965 1.7269639778975652 -0.035776092970272295 -1.323355640788449 0 0 0 0 0 2.7294061666701626 9.264595699236846 7.292134928781314 -72.70217012474986 -31.475757345175374 -1.8271850843725683 38.429081774966654 -19.36385248282068 -10.239264948962918 27.39072334951782 3.4009733625116576 -1.798728224226825 -60.232837885197924 0.6771316298637076 -0.9291704631266591 -96.12174748981974 0.199825221061951 -0.5853518981528352 -42.25771223793856 5.255711632876279 -0.3019188104506918 -63.64732314362485 -0.04407405768731226 0.04418823004595756 -100.00000324823134 -0.006552322035632878 0.026003394841720245 -38.43411122787725 5.51252309826042 2.711525223299468 -58.78079698535893 -2.532160911038129 2.5093442720218944 -100.00892673788951 -0.6940315674377006 1.8582351734557199 -50.44759317236975 4.239150596644149 2.3811984384648914 -66.09274803013335 -1.9702910268999527 1.9272618043132963 -100.0053272155371 -0.2962748744263293 1.1341301750910393 -38.02017187407011 40.54649493361767 -0.5060237042919392 -21.24603355726169 6.86248865909003 2.816582433792152 -13.274595922946206 11.76319119979838 11.257957448582644 2.5314593703103423 0.9927010843063442 -0.980138861568909 -1.1332362811628895 0.9927010843063442 -0.980138861568909 -1.1332362811628895 0 0 0 0 0 0 0 0 0 0 0 11.602139533500432 20.124946823898632 -8.598359364399785 34.17004592353151 86.9582611259545 15.501988332198836 -36.74457951469036 16.402358883320733 -15.984606808349207 -28.505784443824712 -5.591095884617041 -2.315001007900109 50.018916491141866 -0.7957959528707406 -0.8672073745861764 95.78556298193611 -0.08221995874205901 -0.43538045796824204 32.42899351225031 -2.599574151363435 -0.2864047917331802 56.115078336896914 0.08608277394482461 0.09365561561614512 99.25545708875609 0.01317458968654166 0.05327410249033007 38.31196216398239 -20.075973572704093 0.14939589648503454 49.73335123280138 2.5614515352357423 2.5438544816643978 99.8935255418835 0.4116999413248619 1.5381089752082577 39.447490238752465 -7.683815051172676 1.473249192347957 58.50601963375662 2.0074389652645723 1.967079399638896 99.89508517034423 0.31998207610152907 1.1828012739552798 38.980424764141674 -28.41796998973871 -2.1813322483703605 22.19217140919818 -8.664026956733352 1.6788672245762521 5.3978908556971845 -8.6007336367292 -1.1842890785036118 0.019721792286161027
0.256757759981576 9.449014869340765 -3.6560650808603476 -7.000375755381 -7.1820999202928 2.541504476886856 -10.922647893454153 -7.665673509964362 -6.522841447135098 0.007998420609174066 24.401332207600856 4.278881943309422 17.344796623277524 -2.7157324284155093 -3.0581270801213116 0 0 0 5.304944597773559 -0.7185532420717419 3.7571696144172817 -0.0036800014050070284 16.711035431252242 -1.8858768553084604 -3.233759268104206 -4.77691148804748 -4.078595369566118 0 0 0 1.5454359462799652 3.3224717368435908 0.5200043210637203 1.378290721685401 -0.040385004255776104 -2.036117851417031 0 0 0 0 0 0.42525700220065094 11.987433356718551 9.138064871221932 -72.59661051305766 -31.44664744219203 -1.7349052990544254 37.90421258402507 -19.561859689418924 -9.958919014301278 27.775054179696408 4.051190938531122 -2.034902490644844 -62.6739085289543 0.7877473097452089 -0.9256332424420568 -98.06145853188288 0.17964700068411596 -0.5826143975679152 -42.14367095417481 3.9358421348339925 -0.2985754403067223 -64.26777221131518 -0.04407405768731226 0.04418823004595756 -100.00000324823134 -0.006250046528841388 0.025537386128654124 -37.65284139104521 4.019600419435238 2.782056890078164 -59.49104713259453 -2.532160911038129 2.5093442720218944 -100.00892673788951 -0.7906299551011091 1.9472609298940158 -53.68336568341522 3.411973024173532 2.2989047876413444 -66.11483445348334 -1.9702910268999527 1.9272618043132963 -100.0053272155371 -0.2984160933944039 1.1373387531882657 -38.14302480152871 41.0568893456734 -0.5070577713102471 -24.0564242358255 5.345983771441429 2.685142967334906 -13.164885267035771 11.482043832328651 11.02774216239929 2.327349687148716 1.0918036872592731 -0.95632019172874 -1.0981736317800554 1.0918036872592731 -0.95632019172874 -1.0981736317800554 0 0 0 0 0 0 0 0 0 0 0 8.96225951981319 24.9613349121507 -9.43449391404828 29.30154885371906 86.30429651323072 14.678065640396353 -36.18043890936113 9.848312638737799 -15.68600180076545 -29.765360860496077 -6.495746603130227 -2.188158434865722 44.56799506974169 -0.8049275465276801 -0.8691949210088282 96.60171226378704 -0.13197523995862862 -0.5211632134245637 39.60788296619415 -2.270710673958949 -0.2513099323566418 52.070683134883055 0.08825652053967953 0.09219685471149448 99.62773438245593 0.016989647274110155 0.0585050760598112 42.73092757715298 -21.693272148264377 0.28239355364469576 52.14448921420975 2.5630277421948473 2.544439252681323 99.95134816510462 0.5099332009277074 1.6709502141466603 43.46834589679759 -7.874675536603326 1.513609043468189 58.898609380826855 2.0084205621122404 1.9676791022424402 99.95031689539032 0.41360950737145175 1.3078981211059293 43.86602174728825 -32.646734482587526 -1.3502934132483093 19.396807687736917 -6.354437244653558 1.3925566438084975 3.1627057883247733 -11.700948539074867 -0.5918776878584027 0.025884844278852376
0.28637091190816544 9.407730024258749 -3.711408045760581 -6.702786901315538 -6.737254867044513 2.6154248813748766 -10.590848193400126 -6.502879876997428 -6.712898991780731 0.0020100161125160988 22.498617140530243 4.180231562164015 18.16224549790674 -4.04282039882605 -2.9128843420874717 0 0 0 4.820350866414755 -1.0493848989692252 3.6416034058222984 -0.0034613686010418736 17.179879969240144 -1.7042021464952521 -2.5789261813546607 -5.389479733516956 -4.320651634436598 0 0 0 1.2144385938748086 2.9438427941741203 0.4806111192133986 1.0448146875912918 -0.03256825136693884 -2.0845785060287163 0 0 0 0 0 -1.6109855572326994 13.413464572880326 9.50918519695583 -70.88385419712256 -34.20590233810915 -0.44039142852127305 39.91308777715728 -19.933538480910844 -10.530275155335106 26.761744900708855 5.14686851692223 -2.1429286353618946 -60.39444195177109 0.8294638297671696 -0.9233247648957635 -98.79369733689818 0.16162911451356818 -0.5673177922073332 -40.8881768307667 3.917859996471133 -0.3580414335113536 -63.22644963607134 -0.04407405768731226 0.04418823004595756 -100.00000324823134 -0.0061172968021388115 0.02532824324772453 -37.30442003910283 3.502781763072635 2.8609579877249303 -61.755010992171094 -2.532160911038129 2.5093442720218944 -100.00892673788951 -0.5959130965361921 1.7565469798108373 -46.96700916827069 3.02165622780758 2.2929938498729325 -66.92011946769915 -1.9702910268999527 1.9272618043132963 -100.0053272155371 -0.3030209324588713 1.144188976369647 -38.405911342576225 41.481194474390584 -0.41444388488184014 -22.45129464145336 7.871729251184844 3.226668750971765 -15.671703817699381 12.162600577545863 11.63455848003462 2.56064006860248 1.1220484720236468 -1.2313159890811254 -0.845027879585173 1.1220484720236468 -1.2313159890811254 -0.845027879585173 0 0 0 0 0 0 0 0 0 0 0 7.136474044228632 27.04510911861576 -9.92935607379561 28.863563574365717 81.84493332501182 11.29968556847073 -37.541208280992 5.035948736818599 -17.88760515345861 -29.990554746468156 -5.548302561453577 -1.9769162154595241 52.16281087026314 -1.2825564731199826 -0.8336791379794557 91.11331793148193 -0.5264801120670373 -0.5181869427935273 38.19170580383306 -1.8459331110655994 -0.12619659813019105 58.619386466218984 0.09476745501543528 0.09188902889417944 96.57003624054046 -0.020400307703719752 0.05663287624047567 44.7904688923434 -20.588162163066453 0.8232845844733668 59.036918831153066 2.5634603886488554 2.544599493232802 99.9672203250447 0.5552868843371696 1.7260920430765205 45.20488844564677 -7.002670852839849 1.812682186254117 64.345114525838 2.0086901866602114 1.96784355064362 99.96547826553815 0.451002651387154 1.3521218510524529 45.675742243028054 -34.60937652129797 -1.3041052068818018 21.80067493053292 -5.890945931396824 1.2000163253564498 1.6024531787988412 -8.177085980229442 -0.742325779821985 0.02477292039187598
0.31598406383475486 9.366445179176731 -3.7667510106608133 -6.404629689587938 -6.292423625318381 2.6893632472295694 -10.263622514092772 -5.339021427191535 -6.895790778229261 -0.0004012816647536059 20.595894420155595 4.083079224806862 18.977874657754434 -5.371839453843217 -2.786393667736518 0 0 0 4.336366505055779 -1.3811814734985939 3.5288262419535057 -0.0016821438985555495 17.64872206352882 -1.5220585133330782 -1.9207999380289114 -5.999245463611627 -4.569988529731972 0 0 0 0.8842066256834524 2.564509216641456 0.44602858756624636 0.7113322960856031 -0.0250336863087403 -2.133083943547326 0 0 0 0 0 -3.647228322988075 14.851598795498322 9.837947636174633 -69.16047611126655 -36.9299181321381 0.9577749047928348 41.83453853782144 -20.29557627392653 -11.108004161671305 25.750290527077347 6.237475312496566 -2.2943990064396416 -58.11726029390739 0.8711474971268759 -0.9204833585587113 -99.5259323840784 0.14395079614552714 -0.5516300740911124 -39.6326919677571 3.8987993977151802 -0.41717080299557924 -62.185102557317705 -0.04407405768731226 0.04418823004595756 -100.00000324823134 -0.005985821065871294 0.025118296619208506 -36.95600246343973 2.9832141684785576 2.919402487186651 -64.01973327606828 -2.532160911038129 2.5093442720218944 -100.00892673788951 -0.42486481926318237 1.5443829594861247 -40.25201604227035 2.6314633949158828 2.281602263554255 -67.72534036090805 -1.9702910268999527 1.9272618043132963 -100.0053272155371 -0.30765714879029327 1.1510179740029864 -38.66879805138654 41.9079245981325 -0.333753611777916 -20.84553886159076 10.372960718819638 3.8774786253411735 -18.153799043134708 12.847201395817047 12.238607164706039 2.8018106972609917 1.1510811160036376 -1.506442753597295 -0.5919984221716845 1.1510811160036376 -1.506442753597295 -0.5919984221716845 0 0 0 0 0 0 0 0 0 0 0 5.310688325513296 29.135844557518677 -10.408165905644415 28.406908254950444 77.52962550082533 7.8311120287420355 -38.791409442615915 0.16854847374223458 -20.099547513100237 -30.02131622650312 -4.581319275329487 -1.8926829028098282 59.759405733663506 -1.7613914123952137 -0.8440041288234628 85.62483643830717 -0.9209381624196312 -0.52496117030984 36.77553867368494 -1.4096597598870333 -0.050347238501989806 65.16882138115437 0.10128553972454361 0.09192894286349466 93.512337976156 -0.05783339843693213 0.05610561072777874 46.85001232542961 -19.425956739166757 1.2275473116852522 65.93948626537747 2.5638931880918205 2.5447595201500888 99.98309223853283 0.6022928839971362 1.7798347129078365 46.94152539308955 -6.106069428223035 2.027634017184125 69.79635072227849 2.008959931037363 1.9680079990610173 99.98063938872907 0.48977480350307445 1.3951429558473412 47.485523176304916 -36.56828810527738 -1.1757049119495713 24.20147192639822 -5.422412085110645 1.020170083195355 0.04079251482729696 -4.653088381296926 -0.8924210558496928 0.014414770498563387
